<svg version="1.1" xmlns="http://www.w3.org/2000/svg" xmlns:xlink="http://www.w3.org/1999/xlink" width="629.96630859375" height="459"><defs/><g><text fill="#eeeeee" stroke="none" font-family="Arial" font-size="24px" font-style="normal" font-weight="normal" text-decoration="none" x="0" y="0">UNREGISTERED</text><text fill="#eeeeee" stroke="none" font-family="Arial" font-size="24px" font-style="normal" font-weight="normal" text-decoration="none" x="0" y="30">UNREGISTERED</text><text fill="#eeeeee" stroke="none" font-family="Arial" font-size="24px" font-style="normal" font-weight="normal" text-decoration="none" x="0" y="60">UNREGISTERED</text><text fill="#eeeeee" stroke="none" font-family="Arial" font-size="24px" font-style="normal" font-weight="normal" text-decoration="none" x="0" y="90">UNREGISTERED</text><text fill="#eeeeee" stroke="none" font-family="Arial" font-size="24px" font-style="normal" font-weight="normal" text-decoration="none" x="0" y="120">UNREGISTERED</text><text fill="#eeeeee" stroke="none" font-family="Arial" font-size="24px" font-style="normal" font-weight="normal" text-decoration="none" x="0" y="150">UNREGISTERED</text><text fill="#eeeeee" stroke="none" font-family="Arial" font-size="24px" font-style="normal" font-weight="normal" text-decoration="none" x="0" y="180">UNREGISTERED</text><text fill="#eeeeee" stroke="none" font-family="Arial" font-size="24px" font-style="normal" font-weight="normal" text-decoration="none" x="0" y="210">UNREGISTERED</text><text fill="#eeeeee" stroke="none" font-family="Arial" font-size="24px" font-style="normal" font-weight="normal" text-decoration="none" x="0" y="240">UNREGISTERED</text><text fill="#eeeeee" stroke="none" font-family="Arial" font-size="24px" font-style="normal" font-weight="normal" text-decoration="none" x="0" y="270">UNREGISTERED</text><text fill="#eeeeee" stroke="none" font-family="Arial" font-size="24px" font-style="normal" font-weight="normal" text-decoration="none" x="0" y="300">UNREGISTERED</text><text fill="#eeeeee" stroke="none" font-family="Arial" font-size="24px" font-style="normal" font-weight="normal" text-decoration="none" x="0" y="330">UNREGISTERED</text><text fill="#eeeeee" stroke="none" font-family="Arial" font-size="24px" font-style="normal" font-weight="normal" text-decoration="none" x="0" y="360">UNREGISTERED</text><text fill="#eeeeee" stroke="none" font-family="Arial" font-size="24px" font-style="normal" font-weight="normal" text-decoration="none" x="0" y="390">UNREGISTERED</text><text fill="#eeeeee" stroke="none" font-family="Arial" font-size="24px" font-style="normal" font-weight="normal" text-decoration="none" x="0" y="420">UNREGISTERED</text><text fill="#eeeeee" stroke="none" font-family="Arial" font-size="24px" font-style="normal" font-weight="normal" text-decoration="none" x="0" y="450">UNREGISTERED</text><text fill="#eeeeee" stroke="none" font-family="Arial" font-size="24px" font-style="normal" font-weight="normal" text-decoration="none" x="200" y="0">UNREGISTERED</text><text fill="#eeeeee" stroke="none" font-family="Arial" font-size="24px" font-style="normal" font-weight="normal" text-decoration="none" x="200" y="30">UNREGISTERED</text><text fill="#eeeeee" stroke="none" font-family="Arial" font-size="24px" font-style="normal" font-weight="normal" text-decoration="none" x="200" y="60">UNREGISTERED</text><text fill="#eeeeee" stroke="none" font-family="Arial" font-size="24px" font-style="normal" font-weight="normal" text-decoration="none" x="200" y="90">UNREGISTERED</text><text fill="#eeeeee" stroke="none" font-family="Arial" font-size="24px" font-style="normal" font-weight="normal" text-decoration="none" x="200" y="120">UNREGISTERED</text><text fill="#eeeeee" stroke="none" font-family="Arial" font-size="24px" font-style="normal" font-weight="normal" text-decoration="none" x="200" y="150">UNREGISTERED</text><text fill="#eeeeee" stroke="none" font-family="Arial" font-size="24px" font-style="normal" font-weight="normal" text-decoration="none" x="200" y="180">UNREGISTERED</text><text fill="#eeeeee" stroke="none" font-family="Arial" font-size="24px" font-style="normal" font-weight="normal" text-decoration="none" x="200" y="210">UNREGISTERED</text><text fill="#eeeeee" stroke="none" font-family="Arial" font-size="24px" font-style="normal" font-weight="normal" text-decoration="none" x="200" y="240">UNREGISTERED</text><text fill="#eeeeee" stroke="none" font-family="Arial" font-size="24px" font-style="normal" font-weight="normal" text-decoration="none" x="200" y="270">UNREGISTERED</text><text fill="#eeeeee" stroke="none" font-family="Arial" font-size="24px" font-style="normal" font-weight="normal" text-decoration="none" x="200" y="300">UNREGISTERED</text><text fill="#eeeeee" stroke="none" font-family="Arial" font-size="24px" font-style="normal" font-weight="normal" text-decoration="none" x="200" y="330">UNREGISTERED</text><text fill="#eeeeee" stroke="none" font-family="Arial" font-size="24px" font-style="normal" font-weight="normal" text-decoration="none" x="200" y="360">UNREGISTERED</text><text fill="#eeeeee" stroke="none" font-family="Arial" font-size="24px" font-style="normal" font-weight="normal" text-decoration="none" x="200" y="390">UNREGISTERED</text><text fill="#eeeeee" stroke="none" font-family="Arial" font-size="24px" font-style="normal" font-weight="normal" text-decoration="none" x="200" y="420">UNREGISTERED</text><text fill="#eeeeee" stroke="none" font-family="Arial" font-size="24px" font-style="normal" font-weight="normal" text-decoration="none" x="200" y="450">UNREGISTERED</text><text fill="#eeeeee" stroke="none" font-family="Arial" font-size="24px" font-style="normal" font-weight="normal" text-decoration="none" x="400" y="0">UNREGISTERED</text><text fill="#eeeeee" stroke="none" font-family="Arial" font-size="24px" font-style="normal" font-weight="normal" text-decoration="none" x="400" y="30">UNREGISTERED</text><text fill="#eeeeee" stroke="none" font-family="Arial" font-size="24px" font-style="normal" font-weight="normal" text-decoration="none" x="400" y="60">UNREGISTERED</text><text fill="#eeeeee" stroke="none" font-family="Arial" font-size="24px" font-style="normal" font-weight="normal" text-decoration="none" x="400" y="90">UNREGISTERED</text><text fill="#eeeeee" stroke="none" font-family="Arial" font-size="24px" font-style="normal" font-weight="normal" text-decoration="none" x="400" y="120">UNREGISTERED</text><text fill="#eeeeee" stroke="none" font-family="Arial" font-size="24px" font-style="normal" font-weight="normal" text-decoration="none" x="400" y="150">UNREGISTERED</text><text fill="#eeeeee" stroke="none" font-family="Arial" font-size="24px" font-style="normal" font-weight="normal" text-decoration="none" x="400" y="180">UNREGISTERED</text><text fill="#eeeeee" stroke="none" font-family="Arial" font-size="24px" font-style="normal" font-weight="normal" text-decoration="none" x="400" y="210">UNREGISTERED</text><text fill="#eeeeee" stroke="none" font-family="Arial" font-size="24px" font-style="normal" font-weight="normal" text-decoration="none" x="400" y="240">UNREGISTERED</text><text fill="#eeeeee" stroke="none" font-family="Arial" font-size="24px" font-style="normal" font-weight="normal" text-decoration="none" x="400" y="270">UNREGISTERED</text><text fill="#eeeeee" stroke="none" font-family="Arial" font-size="24px" font-style="normal" font-weight="normal" text-decoration="none" x="400" y="300">UNREGISTERED</text><text fill="#eeeeee" stroke="none" font-family="Arial" font-size="24px" font-style="normal" font-weight="normal" text-decoration="none" x="400" y="330">UNREGISTERED</text><text fill="#eeeeee" stroke="none" font-family="Arial" font-size="24px" font-style="normal" font-weight="normal" text-decoration="none" x="400" y="360">UNREGISTERED</text><text fill="#eeeeee" stroke="none" font-family="Arial" font-size="24px" font-style="normal" font-weight="normal" text-decoration="none" x="400" y="390">UNREGISTERED</text><text fill="#eeeeee" stroke="none" font-family="Arial" font-size="24px" font-style="normal" font-weight="normal" text-decoration="none" x="400" y="420">UNREGISTERED</text><text fill="#eeeeee" stroke="none" font-family="Arial" font-size="24px" font-style="normal" font-weight="normal" text-decoration="none" x="400" y="450">UNREGISTERED</text><text fill="#eeeeee" stroke="none" font-family="Arial" font-size="24px" font-style="normal" font-weight="normal" text-decoration="none" x="600" y="0">UNREGISTERED</text><text fill="#eeeeee" stroke="none" font-family="Arial" font-size="24px" font-style="normal" font-weight="normal" text-decoration="none" x="600" y="30">UNREGISTERED</text><text fill="#eeeeee" stroke="none" font-family="Arial" font-size="24px" font-style="normal" font-weight="normal" text-decoration="none" x="600" y="60">UNREGISTERED</text><text fill="#eeeeee" stroke="none" font-family="Arial" font-size="24px" font-style="normal" font-weight="normal" text-decoration="none" x="600" y="90">UNREGISTERED</text><text fill="#eeeeee" stroke="none" font-family="Arial" font-size="24px" font-style="normal" font-weight="normal" text-decoration="none" x="600" y="120">UNREGISTERED</text><text fill="#eeeeee" stroke="none" font-family="Arial" font-size="24px" font-style="normal" font-weight="normal" text-decoration="none" x="600" y="150">UNREGISTERED</text><text fill="#eeeeee" stroke="none" font-family="Arial" font-size="24px" font-style="normal" font-weight="normal" text-decoration="none" x="600" y="180">UNREGISTERED</text><text fill="#eeeeee" stroke="none" font-family="Arial" font-size="24px" font-style="normal" font-weight="normal" text-decoration="none" x="600" y="210">UNREGISTERED</text><text fill="#eeeeee" stroke="none" font-family="Arial" font-size="24px" font-style="normal" font-weight="normal" text-decoration="none" x="600" y="240">UNREGISTERED</text><text fill="#eeeeee" stroke="none" font-family="Arial" font-size="24px" font-style="normal" font-weight="normal" text-decoration="none" x="600" y="270">UNREGISTERED</text><text fill="#eeeeee" stroke="none" font-family="Arial" font-size="24px" font-style="normal" font-weight="normal" text-decoration="none" x="600" y="300">UNREGISTERED</text><text fill="#eeeeee" stroke="none" font-family="Arial" font-size="24px" font-style="normal" font-weight="normal" text-decoration="none" x="600" y="330">UNREGISTERED</text><text fill="#eeeeee" stroke="none" font-family="Arial" font-size="24px" font-style="normal" font-weight="normal" text-decoration="none" x="600" y="360">UNREGISTERED</text><text fill="#eeeeee" stroke="none" font-family="Arial" font-size="24px" font-style="normal" font-weight="normal" text-decoration="none" x="600" y="390">UNREGISTERED</text><text fill="#eeeeee" stroke="none" font-family="Arial" font-size="24px" font-style="normal" font-weight="normal" text-decoration="none" x="600" y="420">UNREGISTERED</text><text fill="#eeeeee" stroke="none" font-family="Arial" font-size="24px" font-style="normal" font-weight="normal" text-decoration="none" x="600" y="450">UNREGISTERED</text><g transform="translate(-14,-33) scale(1,1)"><rect fill="#C0C0C0" stroke="none" x="39" y="71" width="120" height="144" opacity="0.2"/></g><g transform="translate(-14,-33) scale(1,1)"><rect fill="#ffffff" stroke="none" x="32" y="64" width="120" height="144"/></g><g transform="translate(-14,-33) scale(1,1)"><path fill="none" stroke="#000000" d="M 32 64 L 152 64 L 152 208 L 32 208 L 32 64 Z Z" stroke-miterlimit="10"/></g><g transform="translate(-14,-33) scale(1,1)"><path fill="none" stroke="#000000" d="M 32 89 L 152 89" stroke-miterlimit="10"/></g><g transform="translate(-14,-33) scale(1,1)"><path fill="none" stroke="#000000" d="M 32 157 L 152 157" stroke-miterlimit="10"/></g><g transform="translate(-14,-33) scale(1,1)"><g><path fill="none" stroke="none"/><text fill="#000000" stroke="none" font-family="Arial" font-size="13px" font-style="normal" font-weight="bold" text-decoration="none" x="66.70458984375" y="82">Delivery</text></g></g><g transform="translate(-14,-33) scale(1,1)"><g><path fill="none" stroke="none"/><text fill="#000000" stroke="none" font-family="Arial" font-size="13px" font-style="normal" font-weight="normal" text-decoration="none" x="37" y="105">#id: int</text></g></g><g transform="translate(-14,-33) scale(1,1)"><g><path fill="none" stroke="none"/><text fill="#000000" stroke="none" font-family="Arial" font-size="13px" font-style="normal" font-weight="normal" text-decoration="none" x="37" y="120">+name: String</text></g></g><g transform="translate(-14,-33) scale(1,1)"><g><path fill="none" stroke="none"/><text fill="#000000" stroke="none" font-family="Arial" font-size="13px" font-style="normal" font-weight="normal" text-decoration="none" x="37" y="135">+details: String</text></g></g><g transform="translate(-14,-33) scale(1,1)"><g><path fill="none" stroke="none"/><text fill="#000000" stroke="none" font-family="Arial" font-size="13px" font-style="normal" font-weight="normal" text-decoration="none" x="37" y="150">+date: String</text></g></g><g transform="translate(-14,-33) scale(1,1)"><g><path fill="none" stroke="none"/><text fill="#000000" stroke="none" font-family="Arial" font-size="13px" font-style="normal" font-weight="normal" text-decoration="none" x="37" y="173">+add()</text></g></g><g transform="translate(-14,-33) scale(1,1)"><g><path fill="none" stroke="none"/><text fill="#000000" stroke="none" font-family="Arial" font-size="13px" font-style="normal" font-weight="normal" text-decoration="none" x="37" y="188">+update()</text></g></g><g transform="translate(-14,-33) scale(1,1)"><rect fill="#C0C0C0" stroke="none" x="231" y="71" width="120.642578125" height="145" opacity="0.2"/></g><g transform="translate(-14,-33) scale(1,1)"><rect fill="#ffffff" stroke="none" x="224" y="64" width="120.642578125" height="145"/></g><g transform="translate(-14,-33) scale(1,1)"><path fill="none" stroke="#000000" d="M 224 64 L 344.642578125 64 L 344.642578125 209 L 224 209 L 224 64 Z Z" stroke-miterlimit="10"/></g><g transform="translate(-14,-33) scale(1,1)"><path fill="none" stroke="#000000" d="M 224 89 L 344.642578125 89" stroke-miterlimit="10"/></g><g transform="translate(-14,-33) scale(1,1)"><path fill="none" stroke="#000000" d="M 224 172 L 344.642578125 172" stroke-miterlimit="10"/></g><g transform="translate(-14,-33) scale(1,1)"><g><path fill="none" stroke="none"/><text fill="#000000" stroke="none" font-family="Arial" font-size="13px" font-style="normal" font-weight="bold" text-decoration="none" x="267.34130859375" y="82">Items</text></g></g><g transform="translate(-14,-33) scale(1,1)"><g><path fill="none" stroke="none"/><text fill="#000000" stroke="none" font-family="Arial" font-size="13px" font-style="normal" font-weight="normal" text-decoration="none" x="229" y="105">#id: in</text></g></g><g transform="translate(-14,-33) scale(1,1)"><g><path fill="none" stroke="none"/><text fill="#000000" stroke="none" font-family="Arial" font-size="13px" font-style="normal" font-weight="normal" text-decoration="none" x="229" y="120">+name: String</text></g></g><g transform="translate(-14,-33) scale(1,1)"><g><path fill="none" stroke="none"/><text fill="#000000" stroke="none" font-family="Arial" font-size="13px" font-style="normal" font-weight="normal" text-decoration="none" x="229" y="135">+description: String</text></g></g><g transform="translate(-14,-33) scale(1,1)"><g><path fill="none" stroke="none"/><text fill="#000000" stroke="none" font-family="Arial" font-size="13px" font-style="normal" font-weight="normal" text-decoration="none" x="229" y="150">+price: String</text></g></g><g transform="translate(-14,-33) scale(1,1)"><g><path fill="none" stroke="none"/><text fill="#000000" stroke="none" font-family="Arial" font-size="13px" font-style="normal" font-weight="normal" text-decoration="none" x="229" y="165">+datedue: String</text></g></g><g transform="translate(-14,-33) scale(1,1)"><g><path fill="none" stroke="none"/><text fill="#000000" stroke="none" font-family="Arial" font-size="13px" font-style="normal" font-weight="normal" text-decoration="none" x="229" y="188">+add()</text></g></g><g transform="translate(-14,-33) scale(1,1)"><g><path fill="none" stroke="none"/><text fill="#000000" stroke="none" font-family="Arial" font-size="13px" font-style="normal" font-weight="normal" text-decoration="none" x="229" y="203">+update()</text></g></g><g transform="translate(-14,-33) scale(1,1)"><rect fill="#C0C0C0" stroke="none" x="447" y="79" width="115.2216796875" height="145" opacity="0.2"/></g><g transform="translate(-14,-33) scale(1,1)"><rect fill="#ffffff" stroke="none" x="440" y="72" width="115.2216796875" height="145"/></g><g transform="translate(-14,-33) scale(1,1)"><path fill="none" stroke="#000000" d="M 440 72 L 555.2216796875 72 L 555.2216796875 217 L 440 217 L 440 72 Z Z" stroke-miterlimit="10"/></g><g transform="translate(-14,-33) scale(1,1)"><path fill="none" stroke="#000000" d="M 440 97 L 555.2216796875 97" stroke-miterlimit="10"/></g><g transform="translate(-14,-33) scale(1,1)"><path fill="none" stroke="#000000" d="M 440 180 L 555.2216796875 180" stroke-miterlimit="10"/></g><g transform="translate(-14,-33) scale(1,1)"><g><path fill="none" stroke="none"/><text fill="#000000" stroke="none" font-family="Arial" font-size="13px" font-style="normal" font-weight="bold" text-decoration="none" x="467.272216796875" y="90">Customer</text></g></g><g transform="translate(-14,-33) scale(1,1)"><g><path fill="none" stroke="none"/><text fill="#000000" stroke="none" font-family="Arial" font-size="13px" font-style="normal" font-weight="normal" text-decoration="none" x="445" y="113">#id: int</text></g></g><g transform="translate(-14,-33) scale(1,1)"><g><path fill="none" stroke="none"/><text fill="#000000" stroke="none" font-family="Arial" font-size="13px" font-style="normal" font-weight="normal" text-decoration="none" x="445" y="128">+name: String</text></g></g><g transform="translate(-14,-33) scale(1,1)"><g><path fill="none" stroke="none"/><text fill="#000000" stroke="none" font-family="Arial" font-size="13px" font-style="normal" font-weight="normal" text-decoration="none" x="445" y="143">+age: String</text></g></g><g transform="translate(-14,-33) scale(1,1)"><g><path fill="none" stroke="none"/><text fill="#000000" stroke="none" font-family="Arial" font-size="13px" font-style="normal" font-weight="normal" text-decoration="none" x="445" y="158">#username: String</text></g></g><g transform="translate(-14,-33) scale(1,1)"><g><path fill="none" stroke="none"/><text fill="#000000" stroke="none" font-family="Arial" font-size="13px" font-style="normal" font-weight="normal" text-decoration="none" x="445" y="173">#password: String</text></g></g><g transform="translate(-14,-33) scale(1,1)"><g><path fill="none" stroke="none"/><text fill="#000000" stroke="none" font-family="Arial" font-size="13px" font-style="normal" font-weight="normal" text-decoration="none" x="445" y="196">+create()</text></g></g><g transform="translate(-14,-33) scale(1,1)"><g><path fill="none" stroke="none"/><text fill="#000000" stroke="none" font-family="Arial" font-size="13px" font-style="normal" font-weight="normal" text-decoration="none" x="445" y="211">+update()</text></g></g><g transform="translate(-14,-33) scale(1,1)"><rect fill="#C0C0C0" stroke="none" x="31" y="359" width="144" height="130" opacity="0.2"/></g><g transform="translate(-14,-33) scale(1,1)"><rect fill="#ffffff" stroke="none" x="24" y="352" width="144" height="130"/></g><g transform="translate(-14,-33) scale(1,1)"><path fill="none" stroke="#000000" d="M 24 352 L 168 352 L 168 482 L 24 482 L 24 352 Z Z" stroke-miterlimit="10"/></g><g transform="translate(-14,-33) scale(1,1)"><path fill="none" stroke="#000000" d="M 24 377 L 168 377" stroke-miterlimit="10"/></g><g transform="translate(-14,-33) scale(1,1)"><path fill="none" stroke="#000000" d="M 24 445 L 168 445" stroke-miterlimit="10"/></g><g transform="translate(-14,-33) scale(1,1)"><g><path fill="none" stroke="none"/><text fill="#000000" stroke="none" font-family="Arial" font-size="13px" font-style="normal" font-weight="bold" text-decoration="none" x="78.299560546875" y="370">Order</text></g></g><g transform="translate(-14,-33) scale(1,1)"><g><path fill="none" stroke="none"/><text fill="#000000" stroke="none" font-family="Arial" font-size="13px" font-style="normal" font-weight="normal" text-decoration="none" x="29" y="393">#id: int</text></g></g><g transform="translate(-14,-33) scale(1,1)"><g><path fill="none" stroke="none"/><text fill="#000000" stroke="none" font-family="Arial" font-size="13px" font-style="normal" font-weight="normal" text-decoration="none" x="29" y="408">+date: String</text></g></g><g transform="translate(-14,-33) scale(1,1)"><g><path fill="none" stroke="none"/><text fill="#000000" stroke="none" font-family="Arial" font-size="13px" font-style="normal" font-weight="normal" text-decoration="none" x="29" y="423">+item: String</text></g></g><g transform="translate(-14,-33) scale(1,1)"><g><path fill="none" stroke="none"/><text fill="#000000" stroke="none" font-family="Arial" font-size="13px" font-style="normal" font-weight="normal" text-decoration="none" x="29" y="438">+payment: String</text></g></g><g transform="translate(-14,-33) scale(1,1)"><g><path fill="none" stroke="none"/><text fill="#000000" stroke="none" font-family="Arial" font-size="13px" font-style="normal" font-weight="normal" text-decoration="none" x="29" y="461">+add()</text></g></g><g transform="translate(-14,-33) scale(1,1)"><g><path fill="none" stroke="none"/><text fill="#000000" stroke="none" font-family="Arial" font-size="13px" font-style="normal" font-weight="normal" text-decoration="none" x="29" y="476">+update()</text></g></g><g transform="translate(-14,-33) scale(1,1)"><rect fill="#C0C0C0" stroke="none" x="263" y="359" width="144" height="128" opacity="0.2"/></g><g transform="translate(-14,-33) scale(1,1)"><rect fill="#ffffff" stroke="none" x="256" y="352" width="144" height="128"/></g><g transform="translate(-14,-33) scale(1,1)"><path fill="none" stroke="#000000" d="M 256 352 L 400 352 L 400 480 L 256 480 L 256 352 Z Z" stroke-miterlimit="10"/></g><g transform="translate(-14,-33) scale(1,1)"><path fill="none" stroke="#000000" d="M 256 377 L 400 377" stroke-miterlimit="10"/></g><g transform="translate(-14,-33) scale(1,1)"><path fill="none" stroke="#000000" d="M 256 400 L 400 400" stroke-miterlimit="10"/></g><g transform="translate(-14,-33) scale(1,1)"><g><path fill="none" stroke="none"/><text fill="#000000" stroke="none" font-family="Arial" font-size="13px" font-style="normal" font-weight="bold" text-decoration="none" x="310.293212890625" y="370">Seller</text></g></g><g transform="translate(-14,-33) scale(1,1)"><g><path fill="none" stroke="none"/><text fill="#000000" stroke="none" font-family="Arial" font-size="13px" font-style="normal" font-weight="normal" text-decoration="none" x="261" y="393">+category: String</text></g></g><g transform="translate(-14,-33) scale(1,1)"><g><path fill="none" stroke="none"/><text fill="#000000" stroke="none" font-family="Arial" font-size="13px" font-style="normal" font-weight="normal" text-decoration="none" x="261" y="416">#enableUser()</text></g></g><g transform="translate(-14,-33) scale(1,1)"><g><path fill="none" stroke="none"/><text fill="#000000" stroke="none" font-family="Arial" font-size="13px" font-style="normal" font-weight="normal" text-decoration="none" x="261" y="431">#disableUser()</text></g></g><g transform="translate(-14,-33) scale(1,1)"><rect fill="#C0C0C0" stroke="none" x="495" y="351" width="145.96630859375" height="136" opacity="0.2"/></g><g transform="translate(-14,-33) scale(1,1)"><rect fill="#ffffff" stroke="none" x="488" y="344" width="145.96630859375" height="136"/></g><g transform="translate(-14,-33) scale(1,1)"><path fill="none" stroke="#000000" d="M 488 344 L 633.96630859375 344 L 633.96630859375 480 L 488 480 L 488 344 Z Z" stroke-miterlimit="10"/></g><g transform="translate(-14,-33) scale(1,1)"><path fill="none" stroke="#000000" d="M 488 369 L 633.96630859375 369" stroke-miterlimit="10"/></g><g transform="translate(-14,-33) scale(1,1)"><path fill="none" stroke="#000000" d="M 488 422 L 633.96630859375 422" stroke-miterlimit="10"/></g><g transform="translate(-14,-33) scale(1,1)"><g><path fill="none" stroke="none"/><text fill="#000000" stroke="none" font-family="Arial" font-size="13px" font-style="normal" font-weight="bold" text-decoration="none" x="524.5" y="362">Transaction</text></g></g><g transform="translate(-14,-33) scale(1,1)"><g><path fill="none" stroke="none"/><text fill="#000000" stroke="none" font-family="Arial" font-size="13px" font-style="normal" font-weight="normal" text-decoration="none" x="493" y="385">#id: int</text></g></g><g transform="translate(-14,-33) scale(1,1)"><g><path fill="none" stroke="none"/><text fill="#000000" stroke="none" font-family="Arial" font-size="13px" font-style="normal" font-weight="normal" text-decoration="none" x="493" y="400">+details: String</text></g></g><g transform="translate(-14,-33) scale(1,1)"><g><path fill="none" stroke="none"/><text fill="#000000" stroke="none" font-family="Arial" font-size="13px" font-style="normal" font-weight="normal" text-decoration="none" x="493" y="415">+date: String</text></g></g><g transform="translate(-14,-33) scale(1,1)"><g><path fill="none" stroke="none"/><text fill="#000000" stroke="none" font-family="Arial" font-size="13px" font-style="normal" font-weight="normal" text-decoration="none" x="493" y="438">+Operation1()</text></g></g><g transform="translate(-14,-33) scale(1,1)"><path fill="none" stroke="#000000" d="M 93 209 L 95 351" stroke-miterlimit="10"/></g><g transform="translate(-14,-33) scale(1,1)"><path fill="#000000" stroke="none" d="M 97.35222236058273 219.1023839030223 L 93 209 L 88.9340217804229 219.22095010837666 L 93.30982842560388 230.99781821787533"/></g><g transform="translate(-14,-33) scale(1,1)"><path fill="none" stroke="#000000" d="M 97.35222236058273 219.1023839030223 L 93 209 L 88.9340217804229 219.22095010837666 L 93.30982842560388 230.99781821787533 L 97.35222236058273 219.1023839030223" stroke-miterlimit="10"/></g><g transform="translate(-14,-33) scale(1,1)"><g><path fill="none" stroke="none"/><text fill="#000000" stroke="none" font-family="Arial" font-size="13px" font-style="normal" font-weight="normal" text-decoration="none" x="92.5" y="284">+*...1</text></g></g><g transform="translate(-14,-33) scale(1,1)"><path fill="none" stroke="#000000" d="M 168 416 L 234 416 L 234 209" stroke-miterlimit="10"/></g><g transform="translate(-14,-33) scale(1,1)"><path fill="#000000" stroke="none" d="M 238.209517756016 219.16267485762415 L 234 209 L 229.790482243984 219.16267485762415 L 234 231"/></g><g transform="translate(-14,-33) scale(1,1)"><path fill="none" stroke="#000000" d="M 238.209517756016 219.16267485762415 L 234 209 L 229.790482243984 219.16267485762415 L 234 231 L 238.209517756016 219.16267485762415" stroke-miterlimit="10"/></g><g transform="translate(-14,-33) scale(1,1)"><g><path fill="none" stroke="none"/><text fill="#000000" stroke="none" font-family="Arial" font-size="13px" font-style="normal" font-weight="normal" text-decoration="none" x="203.5" y="420">+1...*</text></g></g><g transform="translate(-14,-33) scale(1,1)"><path fill="none" stroke="#000000" d="M 284 64 L 284 43 L 374 43 L 374 144 L 440 144" stroke-miterlimit="10"/></g><g transform="translate(-14,-33) scale(1,1)"><path fill="none" stroke="#000000" d="M 296 209 L 296 352" stroke-miterlimit="10"/></g><g transform="translate(-14,-33) scale(1,1)"><g><path fill="none" stroke="none"/><text fill="#000000" stroke="none" font-family="Arial" font-size="13px" font-style="normal" font-weight="normal" text-decoration="none" x="294.5" y="284">+1...*</text></g></g><g transform="translate(-14,-33) scale(1,1)"><path fill="none" stroke="#000000" d="M 400 415 L 488 415" stroke-miterlimit="10"/></g><g transform="translate(-14,-33) scale(1,1)"><g><path fill="none" stroke="none"/><text fill="#000000" stroke="none" font-family="Arial" font-size="13px" font-style="normal" font-weight="normal" text-decoration="none" x="428.5" y="405">+1...*</text></g></g><g transform="translate(-14,-33) scale(1,1)"><path fill="none" stroke="#000000" d="M 584 344 L 584 144 L 555 144" stroke-miterlimit="10"/></g><g transform="translate(-14,-33) scale(1,1)"><g><path fill="none" stroke="none"/><text fill="#000000" stroke="none" font-family="Arial" font-size="13px" font-style="normal" font-weight="normal" text-decoration="none" x="567.305908203125" y="164">+1...*</text></g></g><g transform="translate(-14,-33) scale(1,1)"><path fill="none" stroke="#000000" d="M 368 351 L 451 218" stroke-miterlimit="10"/></g><g transform="translate(-14,-33) scale(1,1)"><path fill="#FFFFFF" stroke="none" d="M 449.1907927713049 228.8501967357112 L 451 218 L 442.0484496109885 224.39294498904752 L 439.35263988535746 236.66384211141516"/></g><g transform="translate(-14,-33) scale(1,1)"><path fill="none" stroke="#000000" d="M 449.1907927713049 228.8501967357112 L 451 218 L 442.0484496109885 224.39294498904752 L 439.35263988535746 236.66384211141516 L 449.1907927713049 228.8501967357112" stroke-miterlimit="10"/></g></g></svg>